<svg width="1200" height="620" viewBox="0 0 1200 620" fill="none" xmlns="http://www.w3.org/2000/svg" role="img" aria-labelledby="title desc">
  <title id="title">METHEZONE pixel game world</title>
  <desc id="desc">A neon pixel-art game HUD for the METHEZONE GitHub profile with floating Pix companions, AX, fullstack, AI, crypto, web3, code blocks, portals, and quest panels.</desc>
  <defs>
    <linearGradient id="sky" x1="0" y1="0" x2="1200" y2="620" gradientUnits="userSpaceOnUse">
      <stop offset="0" stop-color="#0b1026"/>
      <stop offset="0.46" stop-color="#11213f"/>
      <stop offset="1" stop-color="#0a1716"/>
    </linearGradient>
    <linearGradient id="platform" x1="78" y1="452" x2="1126" y2="532" gradientUnits="userSpaceOnUse">
      <stop stop-color="#33f5c5"/>
      <stop offset="0.31" stop-color="#ffd166"/>
      <stop offset="0.66" stop-color="#ff5ca8"/>
      <stop offset="1" stop-color="#7c5cff"/>
    </linearGradient>
    <filter id="glow" x="-30%" y="-30%" width="160%" height="160%">
      <feGaussianBlur stdDeviation="5" result="blur"/>
      <feColorMatrix in="blur" type="matrix" values="0 0 0 0 0.2 0 0 0 0 0.93 0 0 0 0 0.8 0 0 0 0.8 0"/>
      <feMerge>
        <feMergeNode/>
        <feMergeNode in="SourceGraphic"/>
      </feMerge>
    </filter>
    <filter id="pinkGlow" x="-30%" y="-30%" width="160%" height="160%">
      <feGaussianBlur stdDeviation="4" result="blur"/>
      <feColorMatrix in="blur" type="matrix" values="0 0 0 0 1 0 0 0 0 0.25 0 0 0 0 0.62 0 0 0 0.85 0"/>
      <feMerge>
        <feMergeNode/>
        <feMergeNode in="SourceGraphic"/>
      </feMerge>
    </filter>
    <pattern id="grid" width="40" height="40" patternUnits="userSpaceOnUse">
      <path d="M40 0H0V40" stroke="#4be8d1" stroke-opacity=".14" stroke-width="2"/>
    </pattern>
    <style>
      .pixel { shape-rendering: crispEdges; }
      .hud { font-family: ui-monospace, SFMono-Regular, Menlo, Monaco, Consolas, monospace; }
      .small { font-size: 22px; letter-spacing: 1px; }
      .compact { font-size: 19px; letter-spacing: .5px; }
      .tiny { font-size: 16px; letter-spacing: .5px; }
      .label { fill: #c7fff5; }
      .muted { fill: #86a6b9; }
      .yellow { fill: #ffd166; }
      .green { fill: #33f5c5; }
      .pink { fill: #ff5ca8; }
      .purple { fill: #9b7cff; }
      @keyframes bob { 0%,100% { transform: translateY(0); } 50% { transform: translateY(-16px); } }
      @keyframes drift { 0%,100% { transform: translateX(0); } 50% { transform: translateX(22px); } }
      @keyframes blink { 0%,70%,100% { opacity: 1; } 74%,82% { opacity: .3; } }
      @keyframes scan { from { transform: translateY(-620px); } to { transform: translateY(620px); } }
      @keyframes pulse { 0%,100% { opacity: .55; } 50% { opacity: 1; } }
      @keyframes twinkle { 0%,100% { opacity: .15; transform: scale(.8); } 50% { opacity: 1; transform: scale(1.25); } }
      @keyframes codefall { from { transform: translateY(-170px); opacity: 0; } 15% { opacity: .95; } 85% { opacity: .95; } to { transform: translateY(420px); opacity: 0; } }
      @keyframes chiprun { 0%,100% { transform: translateX(0); } 50% { transform: translateX(86px); } }
      @keyframes orbit { from { transform: rotate(0deg); } to { transform: rotate(360deg); } }
      @keyframes wiggle { 0%,100% { transform: rotate(0deg); } 50% { transform: rotate(10deg); } }
      @keyframes armSwing { 0%,100% { transform: rotate(-9deg); } 50% { transform: rotate(13deg); } }
      @keyframes eyeMove { 0%,100% { transform: translate(0, 0); } 35% { transform: translate(4px, -1px); } 70% { transform: translate(-3px, 2px); } }
      @keyframes blushPop { 0%,45%,100% { opacity: .08; } 60%,78% { opacity: .85; } }
      @keyframes bubblePop { 0%,100% { opacity: .65; transform: translateY(0) scale(.96); } 45% { opacity: 1; transform: translateY(-8px) scale(1); } }
      @keyframes portal { 0%,100% { stroke-dashoffset: 0; opacity: .45; } 50% { stroke-dashoffset: 38; opacity: 1; } }
      .bob { animation: bob 3.4s ease-in-out infinite; transform-box: fill-box; transform-origin: center; }
      .bob2 { animation: bob 4.2s ease-in-out infinite; transform-box: fill-box; transform-origin: center; }
      .drift { animation: drift 5s ease-in-out infinite; transform-box: fill-box; transform-origin: center; }
      .blink { animation: blink 2.2s steps(1) infinite; }
      .pulse { animation: pulse 2.6s ease-in-out infinite; }
      .scan { animation: scan 8s linear infinite; }
      .twinkle { animation: twinkle 2.4s ease-in-out infinite; transform-box: fill-box; transform-origin: center; }
      .fallA { animation: codefall 6.8s linear infinite; }
      .fallB { animation: codefall 8.5s linear infinite; animation-delay: -3.5s; }
      .fallC { animation: codefall 7.4s linear infinite; animation-delay: -1.8s; }
      .chiprun { animation: chiprun 7s ease-in-out infinite; }
      .orbit { animation: orbit 9s linear infinite; transform-box: fill-box; transform-origin: center; }
      .wiggle { animation: wiggle 2.1s ease-in-out infinite; transform-box: fill-box; transform-origin: center; }
      .armL { animation: armSwing 1.8s ease-in-out infinite; transform-box: fill-box; transform-origin: center; }
      .armR { animation: armSwing 1.8s ease-in-out infinite reverse; transform-box: fill-box; transform-origin: center; }
      .eyeMove { animation: eyeMove 4.4s ease-in-out infinite; }
      .blushLive { animation: blushPop 3.2s ease-in-out infinite; }
      .bubblePop { animation: bubblePop 2.6s ease-in-out infinite; transform-box: fill-box; transform-origin: center; }
      .portal { animation: portal 3.4s linear infinite; stroke-dasharray: 14 10; }
    </style>
  </defs>

  <rect width="1200" height="620" rx="28" fill="url(#sky)"/>
  <rect x="0" y="0" width="1200" height="620" fill="url(#grid)"/>
  <g filter="url(#glow)">
    <circle class="twinkle" cx="176" cy="184" r="4" fill="#ffd166"/>
    <circle class="twinkle" cx="284" cy="92" r="3" fill="#33f5c5" style="animation-delay:-.8s"/>
    <circle class="twinkle" cx="430" cy="178" r="5" fill="#ff5ca8" style="animation-delay:-1.4s"/>
    <circle class="twinkle" cx="742" cy="186" r="4" fill="#33f5c5" style="animation-delay:-2s"/>
    <circle class="twinkle" cx="1048" cy="92" r="5" fill="#ffd166" style="animation-delay:-1.1s"/>
    <circle class="twinkle" cx="1120" cy="286" r="3" fill="#ff5ca8" style="animation-delay:-.3s"/>
  </g>
  <g class="hud tiny" opacity=".72">
    <text class="fallA green" x="28" y="0">AX API AI WEB3</text>
    <text class="fallB pink" x="410" y="0">wallet agent build ship</text>
    <text class="fallC yellow" x="1032" y="0">fullstack crypto ops</text>
  </g>
  <g opacity=".35">
    <path d="M0 464H1200" stroke="#33f5c5" stroke-width="2"/>
    <path d="M0 504H1200" stroke="#33f5c5" stroke-width="2" stroke-opacity=".5"/>
    <path d="M98 620L342 344M284 620L476 344M470 620L610 344M650 620L744 344M836 620L878 344M1022 620L1012 344" stroke="#33f5c5" stroke-width="2" stroke-opacity=".42"/>
  </g>

  <g class="pixel" opacity=".96">
    <rect x="86" y="392" width="1028" height="88" fill="#071018" stroke="url(#platform)" stroke-width="6"/>
    <rect x="108" y="414" width="56" height="12" fill="#33f5c5"/>
    <rect x="190" y="414" width="28" height="12" fill="#ffd166"/>
    <rect x="248" y="414" width="96" height="12" fill="#ff5ca8"/>
    <rect x="372" y="414" width="44" height="12" fill="#9b7cff"/>
    <rect x="444" y="414" width="130" height="12" fill="#33f5c5"/>
    <rect x="604" y="414" width="48" height="12" fill="#ffd166"/>
    <rect x="684" y="414" width="122" height="12" fill="#ff5ca8"/>
    <rect x="838" y="414" width="76" height="12" fill="#9b7cff"/>
    <rect x="946" y="414" width="136" height="12" fill="#33f5c5"/>
    <rect x="108" y="450" width="974" height="10" fill="#132336"/>
  </g>

  <g class="hud" filter="url(#glow)">
    <rect x="64" y="54" width="1072" height="110" rx="12" fill="#071018" stroke="#33f5c5" stroke-width="3"/>
    <text x="94" y="104" font-size="34" font-weight="800" fill="#f2fffb">METHEZONE</text>
    <text x="94" y="138" class="compact green">LV. 42 // AX // FULLSTACK // AI // WEB3 // CRYPTO</text>
    <text x="902" y="104" class="small yellow">HP 98%</text>
    <rect x="990" y="86" width="112" height="24" fill="#203149" stroke="#ffd166" stroke-width="2"/>
    <rect x="994" y="90" width="102" height="16" fill="#ffd166"/>
    <text x="902" y="138" class="small pink">XP +999</text>
  </g>

  <g class="hud">
    <rect x="76" y="198" width="308" height="160" rx="10" fill="#081521" stroke="#9b7cff" stroke-width="3"/>
    <text x="104" y="238" class="small purple">ACTIVE QUESTS</text>
    <text x="104" y="274" class="tiny label">[01] Build Pix memory</text>
    <text x="104" y="302" class="tiny label">[02] Gamify daily life</text>
    <text x="104" y="330" class="tiny label">[03] Ship useful weirdness</text>

    <rect x="816" y="198" width="308" height="160" rx="10" fill="#081521" stroke="#33f5c5" stroke-width="3"/>
    <text x="844" y="238" class="small green">LOADOUT</text>
    <text x="844" y="274" class="tiny label">Fullstack / web / infra</text>
    <text x="844" y="302" class="tiny label">AI agents / AX systems</text>
    <text x="844" y="330" class="tiny label">Crypto / wallets / web3</text>
  </g>

  <g class="bob" filter="url(#pinkGlow)">
    <g transform="translate(506 176) scale(1.28)">
      <ellipse cx="70" cy="126" rx="48" ry="9" fill="#071018" opacity=".45"/>
      <ellipse cx="57" cy="114" rx="10" ry="12" fill="#a855f7"/>
      <ellipse cx="83" cy="114" rx="10" ry="12" fill="#a855f7"/>
      <ellipse class="armL" cx="28" cy="82" rx="10" ry="16" fill="#c084fc" transform="rotate(-30 28 82)"/>
      <ellipse class="armR" cx="112" cy="82" rx="10" ry="16" fill="#c084fc" transform="rotate(30 112 82)"/>
      <ellipse cx="70" cy="82" rx="38" ry="34" fill="#c084fc"/>
      <ellipse cx="70" cy="88" rx="22" ry="18" fill="#e9d5ff"/>
      <g class="wiggle">
        <ellipse cx="42" cy="28" rx="10" ry="14" fill="#a855f7" transform="rotate(-20 42 28)"/>
        <ellipse cx="42" cy="28" rx="5" ry="8" fill="#e9d5ff" transform="rotate(-20 42 28)"/>
      </g>
      <g class="wiggle" style="animation-delay:-1s">
        <ellipse cx="98" cy="28" rx="10" ry="14" fill="#a855f7" transform="rotate(20 98 28)"/>
        <ellipse cx="98" cy="28" rx="5" ry="8" fill="#e9d5ff" transform="rotate(20 98 28)"/>
      </g>
      <circle cx="70" cy="52" r="36" fill="#c084fc"/>
      <g class="blink">
        <ellipse cx="57" cy="50" rx="11" ry="12" fill="#ffffff"/>
        <ellipse cx="83" cy="50" rx="11" ry="12" fill="#ffffff"/>
      </g>
      <g class="eyeMove">
        <circle cx="58" cy="51" r="6" fill="#4c1d95"/>
        <circle cx="84" cy="51" r="6" fill="#4c1d95"/>
        <circle cx="60" cy="48" r="2" fill="#ffffff"/>
        <circle cx="86" cy="48" r="2" fill="#ffffff"/>
      </g>
      <path d="M 57 65 Q 70 78 83 65" stroke="#7e22ce" stroke-width="3" fill="none" stroke-linecap="round"/>
      <ellipse class="blushLive" cx="45" cy="62" rx="8" ry="5" fill="#f0abfc"/>
      <ellipse class="blushLive" cx="95" cy="62" rx="8" ry="5" fill="#f0abfc" style="animation-delay:-.4s"/>
    </g>
    <g class="hud bubblePop">
      <rect x="498" y="164" width="204" height="38" rx="10" fill="#071018" stroke="#ffd166" stroke-width="3"/>
      <text x="518" y="189" class="tiny yellow">HEY, I'M PIX</text>
    </g>
    <g class="orbit" opacity=".9">
      <circle cx="574" cy="256" r="88" stroke="#33f5c5" stroke-width="2" stroke-opacity=".35" fill="none"/>
      <circle cx="660" cy="256" r="5" fill="#ffd166"/>
      <circle cx="574" cy="168" r="4" fill="#33f5c5"/>
      <circle cx="490" cy="282" r="4" fill="#ff5ca8"/>
    </g>
    <text x="524" y="356" class="hud small pink">PIX PARTY</text>
  </g>

  <g class="hud tiny" opacity=".95">
    <g class="chiprun">
      <rect x="258" y="372" width="84" height="26" rx="6" fill="#071018" stroke="#33f5c5" stroke-width="2"/>
      <text x="273" y="391" class="green">AX</text>
      <rect x="360" y="372" width="132" height="26" rx="6" fill="#071018" stroke="#9b7cff" stroke-width="2"/>
      <text x="374" y="391" class="purple">FULLSTACK</text>
      <rect x="510" y="372" width="70" height="26" rx="6" fill="#071018" stroke="#ffd166" stroke-width="2"/>
      <text x="526" y="391" class="yellow">AI</text>
      <rect x="598" y="372" width="112" height="26" rx="6" fill="#071018" stroke="#ff5ca8" stroke-width="2"/>
      <text x="612" y="391" class="pink">WEB3</text>
    </g>
  </g>

  <g class="drift pixel">
    <g class="bob2" filter="url(#glow)">
      <rect x="426" y="214" width="34" height="34" fill="#ffd166"/>
      <rect x="436" y="224" width="6" height="6" fill="#071018"/>
      <rect x="450" y="224" width="6" height="6" fill="#071018"/>
      <rect x="440" y="240" width="14" height="4" fill="#071018"/>
      <text x="408" y="270" class="hud tiny yellow">pix</text>
    </g>
  </g>
  <g class="bob pixel" filter="url(#glow)">
    <rect x="930" y="128" width="34" height="34" fill="#33f5c5"/>
    <rect x="940" y="138" width="6" height="6" fill="#071018"/>
    <rect x="954" y="138" width="6" height="6" fill="#071018"/>
    <rect x="944" y="154" width="14" height="4" fill="#071018"/>
    <text x="916" y="188" class="hud tiny green">pix</text>
  </g>
  <g class="bob2 pixel" filter="url(#pinkGlow)">
    <rect x="1062" y="344" width="28" height="28" fill="#ff5ca8"/>
    <rect x="1070" y="352" width="5" height="5" fill="#071018"/>
    <rect x="1082" y="352" width="5" height="5" fill="#071018"/>
    <rect x="1074" y="366" width="12" height="4" fill="#071018"/>
    <text x="1050" y="394" class="hud tiny pink">pix</text>
  </g>

  <g class="pixel pulse" filter="url(#glow)">
    <rect x="446" y="476" width="80" height="18" fill="#33f5c5"/>
    <rect x="462" y="494" width="48" height="18" fill="#33f5c5"/>
    <rect x="478" y="512" width="16" height="34" fill="#33f5c5"/>
    <rect x="444" y="548" width="84" height="10" fill="#33f5c5"/>
    <ellipse class="portal" cx="486" cy="512" rx="58" ry="86" stroke="#33f5c5" stroke-width="4" fill="none"/>
  </g>
  <g class="pixel pulse" filter="url(#pinkGlow)">
    <rect x="684" y="476" width="80" height="18" fill="#ff5ca8"/>
    <rect x="700" y="494" width="48" height="18" fill="#ff5ca8"/>
    <rect x="716" y="512" width="16" height="34" fill="#ff5ca8"/>
    <rect x="682" y="548" width="84" height="10" fill="#ff5ca8"/>
    <ellipse class="portal" cx="724" cy="512" rx="58" ry="86" stroke="#ff5ca8" stroke-width="4" fill="none" style="animation-delay:-1.7s"/>
  </g>

  <g class="hud">
    <rect x="96" y="512" width="340" height="52" rx="8" fill="#071018" stroke="#ffd166" stroke-width="3"/>
    <text x="118" y="546" class="small yellow">PRESS START TO BUILD</text>
    <rect x="834" y="512" width="290" height="52" rx="8" fill="#071018" stroke="#ff5ca8" stroke-width="3"/>
    <text x="864" y="546" class="small pink">NOW LOADING IDEAS</text>
  </g>

  <g class="scan" opacity=".05">
    <rect x="0" y="0" width="1200" height="120" fill="#ffffff"/>
  </g>
  <rect x="8" y="8" width="1184" height="604" rx="22" stroke="#e6fff9" stroke-opacity=".35" stroke-width="4"/>
</svg>
